# xmcd
# 
# Track frame offsets:
#     150
#     16204
#     33962
#     49000
#     64222
#     79846
#     90483
# 
# Disc length: 1365
# 
# Revision: 0
# Processed by: cddbd v1.5.2PL0 Copyright (c) Steve Scherf et al.
# Submitted via: fre:ac v1.0.17
# 
DISCID=4b055307
DTITLE=Melanie Dyer - I'll Still Be Me
DYEAR=2008
DGENRE=Country
TTITLE0=I'll Still Be Me
TTITLE1=Life On The Land
TTITLE2=Till Tomorrow
TTITLE3=Please Wait For Me
TTITLE4=When I Was Young
TTITLE5=Friendly Inverell
TTITLE6=Daylight is Dying
EXTD=
EXTT0=
EXTT1=
EXTT2=
EXTT3=
EXTT4=
EXTT5=
EXTT6=
PLAYORDER=
